<?xml version="1.0" encoding="utf-8"?>
<!-- Generator: Adobe Illustrator 26.5.0, SVG Export Plug-In . SVG Version: 6.00 Build 0)  -->
<svg version="1.1" id="Layer_1" xmlns="http://www.w3.org/2000/svg" xmlns:xlink="http://www.w3.org/1999/xlink" x="0px" y="0px"
	 viewBox="0 0 734 154" style="enable-background:new 0 0 734 154;" xml:space="preserve">
<g>
	<g>
		<path d="M1.17,141.69c-0.39-0.44-1.1-1.36-1.03-2.8c0,0,0-0.08,0-0.28c0.01-0.65,0.37-2.21,2.64-3.41
			c2.97-1.57,9.93-3.66,12.11-4.17c2.01-0.46,12.19-2.61,14.24-2.92c2.05-0.31,13.67-1.6,15.25-1.77
			c1.59-0.17,20.35-1.71,22.03-1.83c1.67-0.11,11.33-0.57,14.04-0.74c0,0,5.76-0.2,11.24-1.46c0,0,2.31-0.83,4.99-1.37
			c0,0,4.24-1.2,7.15,3.37c0,0,3.01,5.1,1.43,7.88c0,0-0.08,0.19-0.26,0.43c-0.42,0.76-1.61,2.43-4.67,4.19
			c-0.67,0.41-1.74,0.91-2.89,0.95c-1.64,0.13-5.18,0.32-8.61-0.02c0,0-1.83-0.15-2.37-0.18c-1.91-0.11-6.98-0.33-11.52-0.51
			c-5.79-0.24-10.63-0.58-13.43-0.52c-2.8,0.06-7.87-0.06-12.37,0.37c-4.5,0.43-15.28,1.29-17.79,1.52
			c-2.51,0.23-11.17,1.08-13.9,1.54c-2.9,0.5-7.5,1.49-8.59,1.77c0,0-3.97,1.04-6.69,0.45C1.95,142.14,1.47,142.02,1.17,141.69"/>
		<path d="M62.63,106.12c-2.04,0.1-2.6-2.39-3.78-4.46c-1.25-2.19-6.15-11.86-7.33-14.05c-1.18-2.19-7.99-15.41-9.02-17.03
			c-0.72-1.12-4.66-8.36-7.18-12.71c-1.2-2.07-3.39-5.5-5.07-7.78c-2.14-2.91-4.73-6.4-5.67-7.64c-1.69-2.21-5.15-6.87-8.02-10.78
			c0,0-2.63-4.2,0.86-7.04c0,0,2.42-1.6,5.5-1.64c0.62-0.01,1.14,0.07,2.07,0.39c1.02,0.35,2.6,1.06,3.88,2.04
			c2.03,1.56,6.18,5.18,10.99,11.78c2.7,3.71,7.24,12.4,8.82,15.21c1.57,2.81,5.98,13.45,6.9,15.55s4.24,11.64,5.61,15.33
			c1.37,3.69,3.18,9.11,4.35,13.51c0.84,3.14,0.97,4.34,0.84,5.5c-0.02,0.49-0.1,0.91-0.3,1.43C66.09,103.73,65.03,106,62.63,106.12
			"/>
		<path d="M70.24,58.61c0,0-0.72,0.25-1.44-1.14c-0.12-0.23-0.25-0.94-0.16-1.5c0.33-2.06,1.94-10.26,6.67-22.11
			c0,0,5.04-12.09,8.41-17c3.38-4.91,8.22-11.9,11.33-13.81c0,0,4.58-3.45,8.43-2.85c0,0,3.79,0.28,5.28,3.32
			c0,0,1.2,3.52-0.63,5.96c0,0-1.8,3.43-4.52,4.88c0,0-6.6,3.85-8.64,5.65c-1.64,1.44-2.98,3.02-4.73,4.92
			c-0.54,0.67-2.01,2.41-3.39,4.09c-0.58,0.69-1.97,2.57-2.34,3c0,0-3.38,4.66-6.53,11.16c-3.15,6.5-3.65,7.74-5.67,12.4
			C72.33,55.57,71.42,58.38,70.24,58.61"/>
		<path d="M77.4,79.78c0,0-1.86-0.37-1.75-1.84c0.19-1.11,0.25-1.46,0.7-2.64c1.54-4.05,3.04-8.87,5.66-13.6
			C85.33,55.71,92.5,44.4,100.3,38.2c4.68-3.72,7.09-5.27,10.93-6.06c0.6-0.13,1.49-0.51,3.26-0.07c1.37,0.39,3.38,1.35,3.99,3.66
			c0,0,0.72,4.12-3.72,7.12c0,0-13.05,8.94-15.28,10.81c-2.23,1.88-3.54,2.56-7.77,6.7c0,0-6.03,6.78-8.25,10.29
			c0,0-2.04,3.53-3.87,6.6c-0.28,0.59-0.78,1.39-1.39,2.08C78.18,79.34,77.97,79.71,77.4,79.78"/>
	</g>
	<g>
		<path d="M134.03,73.56h8.34l16.6,47.45c2.19,6.57,2.78,10.03,2.78,10.03h0.17c0,0,0.67-3.46,2.87-9.86l16.52-47.62h7.92
			l-22.92,64.47h-9.1L134.03,73.56z"/>
		<g>
			<path d="M389.33,138.03h-7.58v-66.4h7.58v43.39l18.54-21.4h8.85l-14.83,16.68l16.68,27.72h-8.85l-12.98-21.91l-7.41,8.34V138.03z
				"/>
			<path d="M467.18,93.63h7.33v7.42h0.17c2.61-4.72,7.42-8.51,14.16-8.51c9.44,0,17.86,5.81,17.86,22.67
				c0,16.18-8.34,23.93-18.37,23.93c-6.49,0-11.71-3.62-13.4-7.58h-0.17v22.33h-7.58V93.63z M487.23,133.15
				c7.92,0,11.8-6.32,11.8-17.95c0-9.44-2.78-16.6-11.88-16.6c-7.84,0-12.64,6.66-12.64,14.16v4.72
				C474.51,126.24,478.8,133.15,487.23,133.15z"/>
			<path d="M536.82,104.74c-0.42-3.96-3.62-6.49-8.85-6.49c-5.22,0-8.68,3.03-8.68,7.16c0,3.62,2.19,5.31,6.66,6.07l6.83,1.01
				c9.27,1.43,12.64,5.22,12.64,12.89c0,8.93-7.25,13.74-17.36,13.74c-9.19,0-16.77-4.13-17.36-13.65h7.42
				c0.34,3.46,2.28,7.84,10.11,7.84c6.07,0,9.86-2.87,9.86-7.5c0-3.54-0.93-5.48-7-6.49l-6.83-1.01
				c-7.92-1.27-12.14-4.55-12.14-12.31c0-7.84,5.98-13.48,16.1-13.48c9.61,0,15.09,4.47,15.85,12.22H536.82z"/>
			<path d="M552.75,93.62h7.16v8.34h0.17c2.02-4.63,7.58-9.18,14.07-9.18h0.76v7.92h-1.43c-7.92,0-13.14,4.55-13.14,13.14v24.18
				h-7.58V93.62z"/>
			<path d="M422.85,106.09c0.17-7.84,6.15-13.23,16.77-13.23c11.04,0,16.43,4.63,16.43,16.51v18.12c0,3.54,0.76,4.97,4.04,5.06v6.15
				h-0.93c-7.08,0-9.44-2.53-10.2-7.84h-0.17c-2.36,5.22-7.67,8.26-14.24,8.26c-8.85,0-14.07-4.8-14.07-12.72
				c0-4.89,2.11-8.93,6.66-11.21c4.63-2.44,11.54-3.29,21.49-3.62v-1.94c0-8-3.03-11.12-9.27-11.12c-6.57,0-9.02,3.79-9.27,7.58
				H422.85z M448.63,118.22v-1.01c-9.61,0.42-15.08,1.18-17.95,3.29c-1.69,1.26-2.44,3.12-2.44,5.48c0,4.55,2.95,6.99,7.75,6.99
				C441.64,132.96,448.63,129.17,448.63,118.22z"/>
			<path d="M579.29,106.09c0.17-7.84,6.15-13.23,16.77-13.23c11.04,0,16.43,4.63,16.43,16.51v18.12c0,3.54,0.76,4.97,4.04,5.06v6.15
				h-0.93c-7.08,0-9.44-2.53-10.2-7.84h-0.17c-2.36,5.22-7.67,8.26-14.24,8.26c-8.85,0-14.07-4.8-14.07-12.72
				c0-4.89,2.11-8.93,6.66-11.21c4.63-2.44,11.54-3.29,21.49-3.62v-1.94c0-8-3.03-11.12-9.27-11.12c-6.57,0-9.02,3.79-9.27,7.58
				H579.29z M605.07,118.22v-1.01c-9.61,0.42-15.08,1.18-17.95,3.29c-1.69,1.26-2.44,3.12-2.44,5.48c0,4.55,2.95,6.99,7.75,6.99
				C598.08,132.96,605.07,129.17,605.07,118.22z"/>
			<path d="M659.34,138.02h-7.25v-7.33h-0.25c-2.36,4.38-7.16,8.43-13.99,8.43c-9.44,0-18.12-5.9-18.12-23
				c0-15.25,7.92-23.59,19.13-23.59c6.66,0,10.95,3.71,12.72,7.84h0.17V71.62h7.58V138.02z M651.93,114.09
				c0-9.44-4.97-15.5-12.05-15.5c-8.51,0-12.39,6.74-12.39,17.19c0,10.03,2.95,17.36,11.8,17.36c7.84,0,12.64-6.24,12.64-14.32
				V114.09z"/>
			<path d="M685.94,139.13c-13.57,0-20.06-9.86-20.06-23.09c0-13.15,7.08-23.51,19.81-23.51c13.32,0,18.54,10.28,18.54,21.49v3.88
				h-30.59c0.51,9.19,4.21,15.42,12.56,15.42c7.42,0,9.35-4.3,10.11-6.91h7.33C702.03,134.07,695.46,139.13,685.94,139.13z
				 M696.47,111.4c-0.17-7.42-3.12-13.15-10.87-13.15c-7.08,0-10.96,5.56-11.88,13.65h22.76V111.4z"/>
			<path d="M722.23,80.72v12.9h10.96v5.82h-10.96v26.21c0,4.72,1.94,6.57,6.74,6.57c2.28,0,4.89-0.42,4.89-0.42v6.41
				c0,0-3.12,0.51-7,0.51c-8.68,0-12.14-4.21-12.14-11.8V99.43h-8.09v-5.56h1.35c5.98,0,7.33-1.43,7.33-9.95v-3.2H722.23z"/>
			<path d="M204.48,139.13c-13.57,0-20.06-9.86-20.06-23.09c0-13.15,7.08-23.51,19.81-23.51c13.32,0,18.54,10.28,18.54,21.49v3.88
				h-30.59c0.51,9.19,4.21,15.42,12.56,15.42c7.42,0,9.35-4.3,10.11-6.91h7.33C220.58,134.07,214.01,139.13,204.48,139.13z
				 M215.02,111.4c-0.17-7.42-3.12-13.15-10.87-13.15c-7.08,0-10.96,5.56-11.88,13.65h22.76V111.4z"/>
			<path d="M240.3,80.72v12.9h10.96v5.82H240.3v26.21c0,4.72,1.94,6.57,6.74,6.57c2.28,0,4.89-0.42,4.89-0.42v6.41
				c0,0-3.12,0.51-7,0.51c-8.68,0-12.14-4.21-12.14-11.8V99.43h-8.09v-5.56h1.35c5.98,0,7.33-1.43,7.33-9.95v-3.2H240.3z"/>
			<path d="M275.1,139.13c-13.57,0-20.06-9.86-20.06-23.09c0-13.15,7.08-23.51,19.81-23.51c13.32,0,18.54,10.28,18.54,21.49v3.88
				H262.8c0.51,9.19,4.21,15.42,12.56,15.42c7.42,0,9.35-4.3,10.11-6.91h7.33C291.2,134.07,284.62,139.13,275.1,139.13z
				 M285.64,111.4c-0.17-7.42-3.12-13.15-10.87-13.15c-7.08,0-10.96,5.56-11.88,13.65h22.76V111.4z"/>
			<path d="M328.31,110.64c0-3.2,0-6.74-1.6-8.85c-1.52-2.11-4.05-2.95-7-2.95c-8.26,0-12.05,5.31-12.05,12.56v26.63h-7.58V93.62
				h7.16v7.5h0.17c2.11-4.55,7.25-8.6,14.33-8.6c8.51,0,14.16,4.05,14.16,14.58v30.93h-7.59V110.64z"/>
			<path d="M367.19,104.74c-0.42-3.96-3.62-6.49-8.85-6.49c-5.22,0-8.68,3.03-8.68,7.16c0,3.62,2.19,5.31,6.66,6.07l6.83,1.01
				c9.27,1.43,12.64,5.22,12.64,12.89c0,8.93-7.25,13.74-17.36,13.74c-9.19,0-16.77-4.13-17.36-13.65h7.42
				c0.34,3.46,2.28,7.84,10.11,7.84c6.07,0,9.86-2.87,9.86-7.5c0-3.54-0.93-5.48-7-6.49l-6.83-1.01
				c-7.92-1.27-12.14-4.55-12.14-12.31c0-7.84,5.98-13.48,16.1-13.48c9.61,0,15.09,4.47,15.85,12.22H367.19z"/>
			<path d="M596.66,89.21c-5.67-0.04-9.16-3.53-9.12-9.09c0.04-5.31,3.88-8.99,9.34-8.95c5.67,0.04,9.16,3.53,9.12,9.09
				C605.96,85.66,602.21,89.26,596.66,89.21z M596.76,75.36c-2.45-0.02-4.1,1.91-4.12,4.8c-0.02,2.93,1.6,4.84,4.13,4.86
				c2.45,0.02,4.1-1.91,4.12-4.8C600.92,77.29,599.3,75.38,596.76,75.36z"/>
		</g>
	</g>
</g>
</svg>
